# xmcd
#
# Track frame offsets: 
#        150
#        13870
#        31138
#        56900
#        69499
#        84741
#        97086
#        110746
#        120806
#        132124
#        148886
#        159943
#        174010
#        186133
#        199317
#        228861
#        250053
#
# Disc length: 3541 seconds
#
# Revision: 0
# Processed by: cddbd v1.5.2PL0 Copyright (c) Steve Scherf et al.
# Submitted via: ExactAudioCopy v0.99pb5
#
DISCID=e30dd311
DTITLE=Jerzy Micha³ Bo¿yk - Drive
DYEAR=2012
DGENRE=Blues
TTITLE0=01.That`s Life
TTITLE1=02.My Way
TTITLE2=03.Wi¹zanka ballad - przebojów  Elvisa Presley`a - Love Me Ten
TTITLE2=der,First in Line,Can`t Help Falling in love
TTITLE3=04.Dream a Little Dream of Me
TTITLE4=05.Jest w nas pamiêæ
TTITLE5=06.Pytasz mnie - mówisz mi
TTITLE6=07.Pamiêtnik
TTITLE7=08.By³ ju¿ kiedys rock
TTITLE8=09.Autumn Leaves
TTITLE9=10.Chandra blues
TTITLE10=11.A-B
TTITLE11=12.Blues o moich miastach
TTITLE12=13.Cyrilometodska
TTITLE13=14.To nie jestem ja
TTITLE14=15.Wi¹zanka przebojów Toma Jones`a - Green Grass of Home,Deli
TTITLE14=lah,Brother,Can You Spare a Dime
TTITLE15=16.Summertime
TTITLE16=17.If I Ruled the World
EXTD=
EXTT0=
EXTT1=
EXTT2=
EXTT3=
EXTT4=
EXTT5=
EXTT6=
EXTT7=
EXTT8=
EXTT9=
EXTT10=
EXTT11=
EXTT12=
EXTT13=
EXTT14=
EXTT15=
EXTT16=
PLAYORDER=
